<?xml version="1.0" encoding="utf-8"?>
<!-- Generator: Adobe Illustrator 24.3.0, SVG Export Plug-In . SVG Version: 6.00 Build 0)  -->
<svg version="1.1" xmlns="http://www.w3.org/2000/svg" xmlns:xlink="http://www.w3.org/1999/xlink" x="0px" y="0px"
	 viewBox="0 0 2500 2500" style="enable-background:new 0 0 2500 2500;" xml:space="preserve">
<style type="text/css">
	.st0{fill:#FFFFFF;}
	.st1{fill:#393E46;}
	.st2{fill:#F2E6DC;}
	.st3{fill:#222831;}
	.st4{fill:#948979;}
	.st5{opacity:0.4;fill:#393E46;}
	.st6{fill:#DFD0B8;}
	.st7{fill:#363E44;}
	.st8{fill:#E6D0BE;}
	.st9{fill:#FFE0BD;}
	.st10{fill:#8B865C;}
	.st11{clip-path:url(#SVGID_2_);fill:#363E44;}
	.st12{fill:#242A2D;}
</style>
<g id="Background">
	<rect class="st0" width="2500" height="2500"/>
</g>
<g id="Illustration">
	<g id="E-commerce_development_1_">
		<circle class="st1" cx="1250" cy="1250.48" r="914.52"/>
		<g>
			<g>
				<path class="st0" d="M2140.73,1211.92h-28.63c-2.56-13.96-6.22-27.53-10.87-40.64l24.78-14.31l-48.45-83.92h0l-24.84,14.34
					c-9.11-10.67-19.05-20.61-29.72-29.72l14.34-24.84l-83.92-48.45h0l-14.31,24.78c-13.11-4.65-26.68-8.3-40.64-10.87v-28.63
					h-96.91l0,0v28.63c-13.96,2.56-27.53,6.22-40.64,10.87l-14.31-24.78v0l-83.92,48.45l14.34,24.84
					c-10.67,9.11-20.61,19.05-29.72,29.72l-24.84-14.34h0l-48.45,83.92l0,0l24.78,14.31c-4.65,13.11-8.3,26.68-10.87,40.64h-28.63
					l0,0v96.91h28.63c2.56,13.96,6.22,27.53,10.87,40.64l-24.78,14.31v0l48.45,83.92h0l24.84-14.34
					c9.11,10.67,19.05,20.61,29.72,29.72l-14.34,24.84l83.92,48.45l0,0l14.31-24.78c13.11,4.65,26.68,8.3,40.64,10.87v28.63l0,0
					h96.91v-28.63c13.96-2.56,27.53-6.22,40.64-10.87l14.31,24.78h0l83.92-48.45l-14.34-24.84c10.67-9.11,20.61-19.05,29.72-29.72
					l24.84,14.34h0l48.45-83.92v0l-24.78-14.31c4.65-13.11,8.3-26.68,10.87-40.64h28.63V1211.92z M2022.22,1332.19
					c-17.46,46.19-54.2,82.93-100.39,100.39c-156.96,59.33-303.35-87.06-244.01-244.02c17.46-46.19,54.2-82.93,100.39-100.39
					C1935.16,1028.84,2081.56,1175.23,2022.22,1332.19z"/>
			</g>
			<path class="st2" d="M1850.02,1474.56c-118.1,0-214.19-96.08-214.19-214.19c0-51.6,18.61-101.45,52.4-140.37
				c33.46-38.53,79.52-63.9,129.71-71.43c1.19-0.19,2.33,0.65,2.51,1.85c0.18,1.2-0.65,2.33-1.85,2.51
				c-101.68,15.27-178.36,104.45-178.36,207.44c0,115.67,94.11,209.78,209.78,209.78c95.58,0,179.08-64.53,203.06-156.92
				c0.31-1.18,1.51-1.89,2.69-1.58c1.18,0.31,1.88,1.51,1.58,2.69C2032.85,1408.68,1947.6,1474.56,1850.02,1474.56z"/>
		</g>
		<g>
			<path class="st3" d="M1867.69,1857.37h-788.94c-32.2,0-58.4-26.2-58.4-58.4V393.4c0-32.2,26.2-58.4,58.4-58.4h788.94
				c32.2,0,58.4,26.2,58.4,58.4v1405.58C1926.09,1831.18,1899.89,1857.37,1867.69,1857.37z M1078.76,339.41
				c-29.77,0-53.99,24.22-53.99,53.99v1405.58c0,29.77,24.22,53.99,53.99,53.99h788.94c29.77,0,53.99-24.22,53.99-53.99V393.4
				c0-29.77-24.22-53.99-53.99-53.99H1078.76z"/>
			<path class="st4" d="M1637.68,388.47v22.71c0,11.88-9.64,21.52-21.53,21.52h-285.84c-11.89,0-21.53-9.63-21.53-21.52v-22.71
				h-218.84c-13.87,0-25.12,11.25-25.12,25.12v1355.58c0,9.18,7.45,16.63,16.63,16.63h775.07c13.87,0,25.12-11.25,25.12-25.12
				V413.59c0-13.87-11.25-25.12-25.12-25.12H1637.68z"/>
			<path class="st0" d="M1720.69,584.26c0,39.55-32.07,71.62-71.62,71.62h-351.68c-39.55,0-71.62-32.06-71.62-71.62v-5.54
				c0-39.55,32.07-71.62,71.62-71.62h351.68c39.55,0,71.62,32.07,71.62,71.62V584.26z"/>
			<rect x="1210.67" y="1347.51" class="st5" width="525.1" height="56.3"/>
			<rect x="1210.67" y="1427.93" class="st5" width="525.1" height="136.72"/>
		</g>
		<g>
			<rect x="1651.84" y="691.12" class="st1" width="420.48" height="108.64"/>
			<g>
				<circle class="st0" cx="1709.18" cy="745.44" r="25.15"/>
				
					<ellipse transform="matrix(0.2489 -0.9685 0.9685 0.2489 619.6805 2288.9431)" class="st0" cx="1785.63" cy="744.93" rx="25.15" ry="25.15"/>
				<circle class="st0" cx="1862.09" cy="744.43" r="25.15"/>
				
					<ellipse transform="matrix(0.9818 -0.19 0.19 0.9818 -106.0233 381.8132)" class="st0" cx="1938.54" cy="743.93" rx="25.15" ry="25.15"/>
				
					<ellipse transform="matrix(0.9926 -0.1214 0.1214 0.9926 -75.3712 250.2158)" class="st0" cx="2014.99" cy="743.42" rx="25.15" ry="25.15"/>
			</g>
		</g>
		<rect x="1714.21" y="816.35" class="st6" width="384.27" height="42.25"/>
		<g>
			<g>
				<polygon class="st7" points="1702.14,1237.05 1259.53,1237.05 1328.56,854.8 1616.02,854.8 				"/>
			</g>
			<path class="st6" d="M1544.21,878.94c-2.78,0-5.03-2.25-5.03-5.03v-72.76c0-17.01-13.84-30.85-30.85-30.85h-61.03
				c-17.01,0-30.85,13.84-30.85,30.85v72.76c0,2.78-2.25,5.03-5.03,5.03c-2.78,0-5.03-2.25-5.03-5.03v-72.76
				c0-22.56,18.35-40.91,40.91-40.91h61.03c22.56,0,40.91,18.35,40.91,40.91v72.76C1549.24,876.69,1546.99,878.94,1544.21,878.94z"
				/>
			<path class="st8" d="M1515.93,1206.4c-0.17,0-0.34-0.02-0.51-0.06c-1.18-0.28-1.91-1.47-1.63-2.65
				c26.98-113.16,78.02-328.95,78.51-337.53c-0.08-1.11,0.68-2.12,1.8-2.32c1.19-0.22,2.35,0.57,2.57,1.77
				c0.91,4.97-59.93,260.81-78.59,339.11C1517.83,1205.72,1516.93,1206.4,1515.93,1206.4z"/>
			<path class="st8" d="M1682.02,1223.16c-0.37,0-0.74-0.09-1.09-0.29l-75.56-42.88V874.91c0-1.22,0.99-2.2,2.2-2.2
				s2.2,0.99,2.2,2.2v302.51l73.32,41.62c1.06,0.6,1.43,1.95,0.83,3C1683.53,1222.76,1682.79,1223.16,1682.02,1223.16z"/>
		</g>
		<g>
			<g>
				<path class="st6" d="M1281.08,1624.79c0,0,15.84-177.17,169.96-129.63c154.12,47.53,283.75,27.37,283.75,27.37
					s-24.49,122.43-128.19,93.62l28.81,23.05c0,0-48.97,51.85-146.92,21.61C1390.55,1630.55,1315.65,1593.1,1281.08,1624.79z"/>
				<path class="st6" d="M1239.31,1585.9c-2.32,2.94-0.83-214.81-0.22-292.59c0.14-17.52,6.6-34.4,18.19-47.54l90.06-102.07
					c0,0,30.25,92.18-38.89,133.95C1239.31,1319.43,1373.26,1415.94,1239.31,1585.9z"/>
				<path class="st6" d="M1219.9,1628.86l-3.41-2.22c-2.9-1.89-71.21-46.81-79.04-84.14c-1.67-7.95-0.49-15.07,3.5-21.18
					c15.59-23.84,14.22-51.05,3.9-63.58c-6.93-8.41-17.59-10.25-30.03-5.19c-20.11,8.19-52.61,0.26-80.88-19.74
					c-29.64-20.97-45.89-48.68-44.59-76.03c2.8-58.75-32.13-94.49-32.49-94.84l-10.11-10.13l243.54,127.18
					c18.26,9.53,29.6,28.25,29.6,48.84V1628.86z M1127.93,1445.29c8.09,0,15.06,3.25,20.33,9.64c12.94,15.7,11.35,45.92-3.61,68.8
					c-3.38,5.16-4.32,11.01-2.88,17.86c6.5,30.95,59.65,69.35,73.73,79.05v-192.81c0-18.95-10.43-36.17-27.23-44.94l-221.26-115.55
					c10.5,14.26,28.84,45.76,26.75,89.64c-1.23,25.81,14.35,52.14,42.73,72.22c26.67,18.87,58.19,26.79,76.67,19.26
					C1118.37,1446.34,1123.33,1445.29,1127.93,1445.29z"/>
				<path class="st7" d="M1275.62,1888.47c-1.22,0-2.2-0.99-2.2-2.2v-238.72l0.02-0.16c2.31-15.79,8.64-29.24,18.29-38.89
					c48.33-48.33,119.61-68.27,186-52.04c51.81,12.66,106.58,12.65,158.38-0.03l21.64-5.3c1.17-0.29,2.37,0.43,2.66,1.62
					c0.29,1.18-0.43,2.37-1.62,2.66l-21.64,5.3c-52.49,12.86-107.98,12.87-160.47,0.03c-64.91-15.86-134.59,3.63-181.84,50.88
					c-8.94,8.94-14.83,21.48-17.02,36.26v238.4C1277.82,1887.48,1276.83,1888.47,1275.62,1888.47z"/>
				<path class="st7" d="M1238.05,1888.47c-1.22,0-2.2-0.99-2.2-2.2v-593.63c0-1.22,0.99-2.2,2.2-2.2c1.22,0,2.2,0.99,2.2,2.2
					v593.63C1240.26,1887.48,1239.27,1888.47,1238.05,1888.47z"/>
				<path class="st3" d="M1217.7,1888.47c-1.22,0-2.2-0.99-2.2-2.2v-260.62c0-1.22,0.99-2.2,2.2-2.2c1.22,0,2.2,0.99,2.2,2.2v260.62
					C1219.9,1887.48,1218.92,1888.47,1217.7,1888.47z"/>
			</g>
			<path class="st0" d="M1141.25,1877.99v137.47c0,75.92,61.55,137.47,137.47,137.47h0c75.92,0,137.47-61.55,137.47-137.47v-137.47
				H1141.25z"/>
		</g>
		<g>
			<g>
				<polygon class="st9" points="552.87,1869.04 583.98,2009.86 682.33,2009.86 682.33,1860.05 				"/>
				<polygon class="st9" points="899.38,1851.4 934.43,1999.58 1047.19,1999.54 1019.91,1851.35 				"/>
				<path class="st3" d="M934.42,1994.59l12.47,167.5l311.77-0.11c-42.21-64.84-110.85-139.7-211.83-167.43L934.42,1994.59z"/>
				<path class="st1" d="M582.71,2004.08c0,6.13-39.52,160.92-39.52,160.92h226.28l-89.01-160.92H582.71z"/>
				<path class="st4" d="M659.21,1103.5c0,0-30.79,199.67,213.91,798.06h159.59c0,0-126.24-730.63-139.73-822.79L659.21,1103.5z"/>
				<path class="st4" d="M523.64,1132.72c0,0-61.87,314.78,21.3,768.84H693.3c0,0,26.61-658.7,64.82-757.6L523.64,1132.72z"/>
				<path class="st7" d="M725.31,1424.38c-0.04,0-0.08,0-0.11,0c-1.21-0.06-2.15-1.1-2.09-2.31l7.04-138.64l50.24-17.31
					c1.15-0.4,2.4,0.21,2.8,1.37c0.4,1.15-0.22,2.4-1.37,2.8l-47.43,16.34l-6.89,135.66
					C727.45,1423.47,726.47,1424.38,725.31,1424.38z"/>
			</g>
			<g>
				<path class="st9" d="M459.37,1033.36l6.02,2.28l108.69-150.09L461.94,785.49l-54.94,120.66
					C384.44,955.72,408.45,1014.05,459.37,1033.36z"/>
				<g>
					<g>
						<path class="st9" d="M910.49,764.79c0,0,58.09,53.44,90.07,18.85c33.2-35.92,71.96-77.3,92.07-96.76
							c41.45-40.12,108.48-93.31,115.8-83.84c4.17,5.4-3.47,14.54-25.52,37.63c2.28-0.05,9.23,1.5,12.28,7.14
							c4.51,8.34-1.23,13.84-1.51,14.56c0.77-0.08,9.62-0.53,13.58,4.55c4.46,5.72,3.54,11.8,0.8,16.8
							c1.92-0.14,10.17,0.62,13.73,5.68c4.63,6.59,0.95,14.7-3.89,19.25c-8.89,8.35-33.73,30.56-45.37,43.98
							c-14.48,16.7-71.25,86.09-111.05,134.88c-24.91,30.53-64.9,44.4-103.37,35.85l-45.9-10.2L910.49,764.79z"/>
						<path class="st7" d="M1137.4,733.02c-0.33,0-0.67-0.08-0.99-0.23c-1.09-0.55-1.53-1.87-0.98-2.96
							c5.45-10.88,5.4-20.83,5.37-28.84c-0.04-8.42-0.08-15.69,7.31-18.56c4.17-1.62,8.44-5.74,12.36-11.92
							c1.04-1.64,0.14-3.05-0.15-3.44c-0.63-0.83-1.83-1.55-3.34-1.09l-35.9,10.85c-1.16,0.36-2.39-0.31-2.75-1.47
							c-0.35-1.16,0.31-2.39,1.47-2.75l35.89-10.85c3.02-0.91,6.21,0.12,8.12,2.64c1.9,2.5,2.04,5.82,0.36,8.46
							c-4.49,7.08-9.37,11.68-14.49,13.67c-4.37,1.7-4.54,5.88-4.5,14.43c0.04,8.03,0.09,19.02-5.83,30.84
							C1138.98,732.58,1138.2,733.02,1137.4,733.02z"/>
						<path class="st7" d="M1197.71,719.9c-0.58,0-1.17-0.23-1.6-0.69c-5.78-6.12-7.17-14.95-4.13-22.37l-0.12,0.08
							c-5.6,3.96-13.22,3.35-18.12-1.45c-2.76-2.7-4.27-6.31-4.27-10.17c0.01-3.86,1.54-7.47,4.3-10.16l2.07-2.01
							c-3.37-0.05-6.71-1.53-8.98-4.31c-3.79-4.65-3.49-11.4,0.71-15.69l9.6-9.82c0.85-0.87,2.25-0.88,3.12-0.03
							c0.87,0.85,0.89,2.25,0.03,3.12l-9.6,9.82c-2.63,2.69-2.82,6.91-0.44,9.82c2.52,3.09,7.13,3.6,10.27,1.15l7.45-5.84
							c0.92-0.72,2.25-0.6,3.02,0.29c0.77,0.88,0.72,2.21-0.12,3.03l-14.05,13.65c-1.91,1.86-2.96,4.34-2.97,7
							c0,2.66,1.04,5.15,2.94,7.01c3.38,3.31,8.63,3.72,12.49,1l12.02-8.49c0.92-0.65,2.18-0.5,2.93,0.34
							c0.74,0.85,0.73,2.12-0.03,2.95l-5.07,5.51c-5.85,6.36-5.78,16.27,0.15,22.55c0.83,0.89,0.8,2.28-0.09,3.12
							C1198.8,719.7,1198.25,719.9,1197.71,719.9z"/>
					</g>
				</g>
				<path class="st3" d="M517.15,920.06l-110.41-46.58c0,0,25.07-68.97,51.03-109.59c27.49-43.02,65.56-61.16,116.32-66.65
					c72.09-7.8,202.17,3.02,295.01,33.05c117.31,37.95,122.49,41.4,122.49,41.4L931.2,932.13l-39.68-10.35l48.44,311.03
					l-473.6,17.47C466.35,1250.28,503.35,975.26,517.15,920.06z"/>
				<g>
					<path class="st0" d="M863.09,1032.19H724.17l73.06-205.12H934.5c11.16,0,18.96,11.05,15.21,21.57l-58.25,163.54
						C887.19,1024.18,875.83,1032.19,863.09,1032.19z"/>
					<polygon class="st10" points="910.71,842.85 819.98,842.85 828.31,817.56 920.76,817.56 					"/>
					<path class="st7" d="M820.78,844.63c-0.2,0-0.4-0.03-0.61-0.09c-1.17-0.33-1.85-1.55-1.51-2.72l7.36-25.75h94.82
						c1.22,0,2.2,0.99,2.2,2.2c0,1.22-0.99,2.2-2.2,2.2h-91.5l-6.45,22.56C822.62,844,821.74,844.63,820.78,844.63z"/>
					<path class="st7" d="M900.14,817.02c-0.2,0-0.4-0.03-0.61-0.09c-1.17-0.33-1.85-1.55-1.51-2.72l6.1-21.34H860.4l-6.45,22.55
						c-0.33,1.17-1.55,1.85-2.72,1.51c-1.17-0.33-1.85-1.55-1.51-2.72l7.36-25.75h52.89l-7.7,26.96
						C901.98,816.39,901.1,817.02,900.14,817.02z"/>
					<path class="st7" d="M878.58,813.57c-4.55,0-8.24-3.7-8.24-8.24c0-4.55,3.7-8.24,8.24-8.24c4.54,0,8.24,3.7,8.24,8.24
						C886.82,809.88,883.12,813.57,878.58,813.57z M878.58,801.5c-2.11,0-3.83,1.72-3.83,3.83c0,2.11,1.72,3.83,3.83,3.83
						c2.11,0,3.83-1.72,3.83-3.83C882.41,803.22,880.69,801.5,878.58,801.5z"/>
				</g>
				<g>
					<path class="st9" d="M487.11,920.07c54.8,3.66,184.27,5.91,196.9,6.63c23.61,1.35,150.12,11.88,150.58,30.3
						c0.22,8.8-24.25,7.87-32.51,7.32c6.45,3.74,32.78,15.41,30.46,25c-2.73,11.27-36.23,2.17-36.84,2.36
						c6.94,3.13,35.07,14.48,33.61,21.74c-1.9,9.45-31.24,6.73-39.99,5.52c0.75,1.32,29.02,8.21,27.24,19.56
						c-1.31,8.34-28.23,5.81-39.91,4.75c-20.98-1.18-265.69-1.74-311.16-7.65C447.69,1033.29,463.03,937.23,487.11,920.07z"/>
					<path class="st7" d="M605.13,926.24c-0.02,0-0.05,0-0.07,0c-27.9-0.91-100.59-4.15-118.25-5.14c-1.21-0.07-2.15-1.11-2.08-2.32
						c0.07-1.22,1.12-2.13,2.32-2.08c17.64,0.98,90.27,4.22,118.15,5.13c1.22,0.04,2.17,1.06,2.13,2.27
						C607.29,925.3,606.31,926.24,605.13,926.24z"/>
					<g>
						<path class="st7" d="M802.42,965.67c-0.29,0-0.59-0.06-0.87-0.18c-4.45-1.92-9.08-3.54-13.74-4.82
							c-8.38-2.31-17.08-3.57-25.84-3.77c-1.22-0.03-2.18-1.04-2.16-2.25c0.03-1.22,1.12-2.23,2.25-2.15
							c9.13,0.2,18.18,1.52,26.91,3.92c4.86,1.34,9.68,3.03,14.32,5.02c1.12,0.48,1.63,1.78,1.15,2.9
							C804.08,965.17,803.27,965.67,802.42,965.67z"/>
						<path class="st7" d="M796.2,993.31c-0.22,0-0.43-0.03-0.65-0.1c-0.97-0.3-1.97-0.59-2.98-0.87
							c-8.38-2.31-17.07-3.57-25.84-3.77c-1.22-0.03-2.18-1.04-2.15-2.25c0.03-1.22,1.05-2.24,2.25-2.15
							c9.13,0.2,18.18,1.52,26.91,3.93c1.06,0.29,2.1,0.59,3.11,0.91c1.16,0.36,1.82,1.59,1.46,2.75
							C798.01,992.7,797.14,993.31,796.2,993.31z"/>
						<path class="st7" d="M788.76,1020.86c-0.13,0-0.27-0.01-0.4-0.04c-5.58-1.03-11.31-1.62-17.04-1.75
							c-1.22-0.03-2.18-1.04-2.15-2.25c0.03-1.22,1-2.23,2.25-2.15c5.96,0.13,11.93,0.75,17.74,1.82c1.2,0.22,1.99,1.37,1.77,2.57
							C790.73,1020.12,789.81,1020.86,788.76,1020.86z"/>
					</g>
				</g>
			</g>
			<g>
				<path class="st9" d="M769.16,680.44c-14.77,10.49-56.51-17.99-56.51-17.99l-23.88-49.94c0-25.49,20.66-46.16,46.16-46.16
					c25.49,0,46.16,20.66,46.16,46.16C781.08,612.5,784.2,669.76,769.16,680.44z"/>
				<path class="st9" d="M718.93,737.82h3.62c16.65,0,30.16-13.5,30.16-30.16V593.97h-63.94v113.69
					C688.77,724.32,702.27,737.82,718.93,737.82z"/>
				<path class="st9" d="M775.78,624.64c0,0,12.95,13.56,12.26,17.14c-0.82,4.27-15.24,6.88-15.24,6.88S776.12,624.67,775.78,624.64
					z"/>
				<g>
					<path class="st0" d="M734.13,622.67c0,0,7.73-4.16,17.04-4.16c1.98,0-1.76,15.86-3.64,14.96
						C739.26,629.52,734.13,622.67,734.13,622.67z"/>
					<g>
						<defs>
							<path id="SVGID_1_" d="M734.13,622.67c0,0,11.36-6.11,23.14-3.51c11.78,2.6,19.51,12.93,19.51,12.93s-11.36,6.11-23.14,3.51
								C741.86,633,734.13,622.67,734.13,622.67z"/>
						</defs>
						<clipPath id="SVGID_2_">
							<use xlink:href="#SVGID_1_"  style="overflow:visible;"/>
						</clipPath>
						<path class="st11" d="M751.56,618.1c6.16-6.16,16.15-6.16,22.31,0c6.16,6.16,6.16,16.15,0,22.31
							c-6.16,6.16-16.15,6.16-22.31,0C745.4,634.25,745.4,624.26,751.56,618.1z"/>
					</g>
				</g>
				<path class="st12" d="M717.24,621.09c0,0,9.12,23.46,33.89,24.77c24.77,1.3,29.3,0.86,29.3,0.86l3.19,23.56
					c1.41,10.39-6.89,19.54-17.37,19.14l-17.74-0.67c-17.94-0.68-32.64-14.46-34.48-32.32l-2.02-19.69l-23.25-8.37
					c0,0-38.09-18.3-23.67-45.07c9.12-16.94,24.77-10.43,24.77-10.43l59.33-45.72c11.54-8.89,27.89-7.84,38.19,2.46v0
					c9.8,9.8,8.77,25.99-2.2,34.47l-7.99,6.17l7.94-1.59c6.41-1.28,12.65,2.88,13.94,9.29l0,0c2.51,12.53-7.27,24.25-20.04,23.82
					c-5.7-0.19-12.08-0.99-18.78-2.85C736.79,592.42,713.33,600.24,717.24,621.09z"/>
				<path class="st9" d="M717.16,629.94c2.83,8.04-0.47,16.53-7.36,18.96c-6.9,2.43-14.78-2.13-17.61-10.17
					c-2.83-8.04,0.47-16.53,7.36-18.96C706.44,617.34,714.33,621.89,717.16,629.94z"/>
				<path class="st9" d="M761.37,658.86c-1.64,0-3.28-0.46-4.71-1.39c-2.75-1.78-4.27-5.05-3.89-8.32c0.14-1.21,1.24-2.07,2.45-1.93
					c1.21,0.14,2.07,1.24,1.93,2.45c-0.19,1.62,0.56,3.23,1.91,4.1c1.4,0.91,3.22,0.91,4.65-0.01c1.02-0.66,2.39-0.36,3.05,0.66
					c0.66,1.02,0.36,2.39-0.66,3.05C764.65,658.4,763.01,658.86,761.37,658.86z"/>
				<path class="st7" d="M709.42,644.15c-0.48,0-0.97-0.16-1.38-0.48l-6.52-5.21c-0.95-0.76-1.11-2.15-0.34-3.1
					c0.76-0.95,2.15-1.1,3.1-0.34l6.52,5.21c0.95,0.76,1.1,2.15,0.34,3.1C710.7,643.87,710.06,644.15,709.42,644.15z"/>
			</g>
		</g>
		<g>
			<g>
				<path class="st0" d="M1933.51,1921.73h-19.52c-1.75-9.51-4.24-18.77-7.41-27.7l16.89-9.75l-33.03-57.21h0l-16.93,9.77
					c-6.21-7.27-12.99-14.05-20.26-20.26l9.77-16.93l-57.21-33.03h0l-9.75,16.89c-8.93-3.17-18.19-5.66-27.7-7.41v-19.52h-66.06l0,0
					v19.52c-9.51,1.75-18.77,4.24-27.7,7.41l-9.75-16.89l-57.21,33.03l9.77,16.93c-7.27,6.21-14.05,12.99-20.26,20.26l-16.93-9.77
					l0,0l-33.03,57.21l16.89,9.75c-3.17,8.93-5.66,18.19-7.41,27.7h-19.52h0v66.06h19.52c1.75,9.51,4.24,18.77,7.41,27.7
					l-16.89,9.75l33.03,57.21l0,0l16.93-9.77c6.21,7.27,12.99,14.05,20.26,20.26l-9.77,16.93l57.21,33.03l0,0l9.75-16.89
					c8.93,3.17,18.19,5.66,27.7,7.41v19.52h66.06v-19.52c9.51-1.75,18.77-4.24,27.7-7.41l9.75,16.89l57.21-33.03l-9.77-16.93
					c7.27-6.21,14.05-12.99,20.26-20.26l16.93,9.77h0l33.03-57.21l-16.89-9.75c3.17-8.93,5.66-18.19,7.41-27.7h19.52V1921.73z
					 M1869.24,2006.3c-13.52,38.43-43.93,68.85-82.36,82.36c-118.14,41.54-226.98-67.31-185.44-185.44
					c13.52-38.43,43.93-68.85,82.36-82.36C1801.94,1779.31,1910.79,1888.16,1869.24,2006.3z"/>
			</g>
		</g>
	</g>
</g>
</svg>
